<svg width="56" height="76" viewBox="0 0 56 76" fill="none" xmlns="http://www.w3.org/2000/svg">
<path d="M14.5 29L1 38L14.5 47L14.5 29Z" fill="white"/>
<path d="M31.5 42L23 53L34.5 60.5L34.5 42C34.5 39.6 32.5 41 31.5 42Z" fill="white"/>
<path d="M34.5 15L23 23C25.1667 26.5 30.5077 33.0116 31.5 34.5C32.4923 35.9884 34.5 34.5 34.5 33.5L34.5 15Z" fill="white"/>
<path d="M55 41L41.5 41C39.5 41 39.3333 42 39.5 42.5L39.5 49C39.5 50.6 40.8333 51 41.5 51L50 51L50 56L39.5 56C37.9 62 41.8333 66.1667 44 67.5L55 75L55 41Z" fill="white"/>
<path d="M45 19L45 35L41 35C39.8 35 39.5 33.3333 39.5 32.5L39.5 15.5C40.3 12.7 42.1667 10.3333 43 9.5L55 1L55 35L50 35L50 19L45 19Z" fill="white"/>
<path d="M23 34.5C20.6 34.5 19.3333 36.8333 19 38C19 41 22 42 23 42C26 42 27 39.5 27 38C27 36 25 34.5 23 34.5Z" fill="white"/>
<path d="M14.5 29L1 38L14.5 47L14.5 29Z" stroke="black" stroke-width="0.5"/>
<path d="M31.5 42L23 53L34.5 60.5L34.5 42C34.5 39.6 32.5 41 31.5 42Z" stroke="black" stroke-width="0.5"/>
<path d="M34.5 15L23 23C25.1667 26.5 30.5077 33.0116 31.5 34.5C32.4923 35.9884 34.5 34.5 34.5 33.5L34.5 15Z" stroke="black" stroke-width="0.5"/>
<path d="M55 41L41.5 41C39.5 41 39.3333 42 39.5 42.5L39.5 49C39.5 50.6 40.8333 51 41.5 51L50 51L50 56L39.5 56C37.9 62 41.8333 66.1667 44 67.5L55 75L55 41Z" stroke="black" stroke-width="0.5"/>
<path d="M45 19L45 35L41 35C39.8 35 39.5 33.3333 39.5 32.5L39.5 15.5C40.3 12.7 42.1667 10.3333 43 9.5L55 1L55 35L50 35L50 19L45 19Z" stroke="black" stroke-width="0.5"/>
<path d="M23 34.5C20.6 34.5 19.3333 36.8333 19 38C19 41 22 42 23 42C26 42 27 39.5 27 38C27 36 25 34.5 23 34.5Z" stroke="black" stroke-width="0.5"/>
</svg>
