<svg width="56" height="76" viewBox="0 0 56 76" fill="none" xmlns="http://www.w3.org/2000/svg">
<path d="M41.5 47L55 38L41.5 29L41.5 47Z" fill="white"/>
<path d="M24.5 34L33 23L21.5 15.5L21.5 34C21.5 36.4 23.5 35 24.5 34Z" fill="white"/>
<path d="M21.5 61L33 53C30.8333 49.5 25.4923 42.9884 24.5 41.5C23.5077 40.0116 21.5 41.5 21.5 42.5L21.5 61Z" fill="white"/>
<path d="M0.999999 35L14.5 35C16.5 35 16.6667 34 16.5 33.5L16.5 27C16.5 25.4 15.1667 25 14.5 25L6 25L6 20L16.5 20C18.1 14 14.1667 9.83333 12 8.5L1 0.999998L0.999999 35Z" fill="white"/>
<path d="M11 57L11 41L15 41C16.2 41 16.5 42.6667 16.5 43.5L16.5 60.5C15.7 63.3 13.8333 65.6667 13 66.5L0.999997 75L0.999998 41L6 41L6 57L11 57Z" fill="white"/>
<path d="M33 41.5C35.4 41.5 36.6667 39.1667 37 38C37 35 34 34 33 34C30 34 29 36.5 29 38C29 40 31 41.5 33 41.5Z" fill="white"/>
<path d="M41.5 47L55 38L41.5 29L41.5 47Z" stroke="black" stroke-width="0.5"/>
<path d="M24.5 34L33 23L21.5 15.5L21.5 34C21.5 36.4 23.5 35 24.5 34Z" stroke="black" stroke-width="0.5"/>
<path d="M21.5 61L33 53C30.8333 49.5 25.4923 42.9884 24.5 41.5C23.5077 40.0116 21.5 41.5 21.5 42.5L21.5 61Z" stroke="black" stroke-width="0.5"/>
<path d="M0.999999 35L14.5 35C16.5 35 16.6667 34 16.5 33.5L16.5 27C16.5 25.4 15.1667 25 14.5 25L6 25L6 20L16.5 20C18.1 14 14.1667 9.83333 12 8.5L1 0.999998L0.999999 35Z" stroke="black" stroke-width="0.5"/>
<path d="M11 57L11 41L15 41C16.2 41 16.5 42.6667 16.5 43.5L16.5 60.5C15.7 63.3 13.8333 65.6667 13 66.5L0.999997 75L0.999998 41L6 41L6 57L11 57Z" stroke="black" stroke-width="0.5"/>
<path d="M33 41.5C35.4 41.5 36.6667 39.1667 37 38C37 35 34 34 33 34C30 34 29 36.5 29 38C29 40 31 41.5 33 41.5Z" stroke="black" stroke-width="0.5"/>
</svg>
