<svg width="76" height="110" viewBox="0 0 76 110" fill="none" xmlns="http://www.w3.org/2000/svg">
<path d="M47 14.5L38 1L29 14.5L47 14.5Z" fill="white"/>
<path d="M34 31.5L23 23L15.5 34.5H34C36.4 34.5 35 32.5 34 31.5Z" fill="white"/>
<path d="M61 34.5L53 23C49.5 25.1667 42.9884 30.5077 41.5 31.5C40.0116 32.4923 41.5 34.5 42.5 34.5L61 34.5Z" fill="white"/>
<path d="M35 55V41.5C35 39.5 34 39.3333 33.5 39.5H27C25.4 39.5 25 40.8333 25 41.5V50H20V39.5C14 37.9 9.83333 41.8333 8.5 44L1 55H35Z" fill="white"/>
<path d="M57 45H41V41C41 39.8 42.6667 39.5 43.5 39.5L60.5 39.5C63.3 40.3 65.6667 42.1667 66.5 43L75 55L41 55V50H57V45Z" fill="white"/>
<path d="M41.5 23C41.5 20.6 39.1667 19.3333 38 19C35 19 34 22 34 23C34 26 36.5 27 38 27C40 27 41.5 25 41.5 23Z" fill="white"/>
<path d="M47 14.5L38 1L29 14.5L47 14.5Z" stroke="black" stroke-width="0.5"/>
<path d="M34 31.5L23 23L15.5 34.5H34C36.4 34.5 35 32.5 34 31.5Z" stroke="black" stroke-width="0.5"/>
<path d="M61 34.5L53 23C49.5 25.1667 42.9884 30.5077 41.5 31.5C40.0116 32.4923 41.5 34.5 42.5 34.5L61 34.5Z" stroke="black" stroke-width="0.5"/>
<path d="M35 55V41.5C35 39.5 34 39.3333 33.5 39.5H27C25.4 39.5 25 40.8333 25 41.5V50H20V39.5C14 37.9 9.83333 41.8333 8.5 44L1 55H35Z" stroke="black" stroke-width="0.5"/>
<path d="M57 45H41V41C41 39.8 42.6667 39.5 43.5 39.5L60.5 39.5C63.3 40.3 65.6667 42.1667 66.5 43L75 55L41 55V50H57V45Z" stroke="black" stroke-width="0.5"/>
<path d="M41.5 23C41.5 20.6 39.1667 19.3333 38 19C35 19 34 22 34 23C34 26 36.5 27 38 27C40 27 41.5 25 41.5 23Z" stroke="black" stroke-width="0.5"/>
<path d="M47 95.5L38 109L29 95.5H47Z" fill="white"/>
<path d="M34 78.5L23 87L15.5 75.5H34C36.4 75.5 35 77.5 34 78.5Z" fill="white"/>
<path d="M61 75.5L53 87C49.5 84.8333 42.9884 79.4923 41.5 78.5C40.0116 77.5077 41.5 75.5 42.5 75.5H61Z" fill="white"/>
<path d="M35 55V68.5C35 70.5 34 70.6667 33.5 70.5H27C25.4 70.5 25 69.1667 25 68.5V60H20V70.5C14 72.1 9.83333 68.1667 8.5 66L1 55H35Z" fill="white"/>
<path d="M57 65H41V69C41 70.2 42.6667 70.5 43.5 70.5H60.5C63.3 69.7 65.6667 67.8333 66.5 67L75 55L41 55V60H57V65Z" fill="white"/>
<path d="M41.5 87C41.5 89.4 39.1667 90.6667 38 91C35 91 34 88 34 87C34 84 36.5 83 38 83C40 83 41.5 85 41.5 87Z" fill="white"/>
<path d="M47 95.5L38 109L29 95.5H47Z" stroke="black" stroke-width="0.5"/>
<path d="M34 78.5L23 87L15.5 75.5H34C36.4 75.5 35 77.5 34 78.5Z" stroke="black" stroke-width="0.5"/>
<path d="M61 75.5L53 87C49.5 84.8333 42.9884 79.4923 41.5 78.5C40.0116 77.5077 41.5 75.5 42.5 75.5H61Z" stroke="black" stroke-width="0.5"/>
<path d="M35 55V68.5C35 70.5 34 70.6667 33.5 70.5H27C25.4 70.5 25 69.1667 25 68.5V60H20V70.5C14 72.1 9.83333 68.1667 8.5 66L1 55H35Z" stroke="black" stroke-width="0.5"/>
<path d="M57 65H41V69C41 70.2 42.6667 70.5 43.5 70.5H60.5C63.3 69.7 65.6667 67.8333 66.5 67L75 55L41 55V60H57V65Z" stroke="black" stroke-width="0.5"/>
<path d="M41.5 87C41.5 89.4 39.1667 90.6667 38 91C35 91 34 88 34 87C34 84 36.5 83 38 83C40 83 41.5 85 41.5 87Z" stroke="black" stroke-width="0.5"/>
</svg>
